<svg xmlns="http://www.w3.org/2000/svg" width="32" height="32" viewBox="0 0 32 32">
  <defs>
    <linearGradient id="g" x1="0%" y1="0%" x2="100%" y2="100%">
      <stop offset="0%" stop-color="#00d2ff"/>
      <stop offset="100%" stop-color="#3a7bd5"/>
    </linearGradient>
  </defs>
  <polygon points="16,2 28,9 28,23 16,30 4,23 4,9" fill="#0a1628" stroke="url(#g)" stroke-width="2"/>
  <circle cx="16" cy="16" r="3" fill="#00d2ff" opacity="0.9"/>
  <circle cx="16" cy="9" r="2.5" fill="#3a7bd5"/>
  <circle cx="22" cy="13" r="2" fill="#3a7bd5"/>
  <circle cx="22" cy="19" r="2" fill="#3a7bd5"/>
  <circle cx="16" cy="23" r="2" fill="#3a7bd5"/>
  <circle cx="10" cy="19" r="2" fill="#3a7bd5"/>
  <circle cx="10" cy="13" r="2" fill="#3a7bd5"/>
  <line x1="16" y1="9" x2="22" y2="13" stroke="#00d2ff" stroke-width="0.8" opacity="0.6"/>
  <line x1="22" y1="13" x2="22" y2="19" stroke="#3a7bd5" stroke-width="0.8" opacity="0.6"/>
  <line x1="22" y1="19" x2="16" y2="23" stroke="#00d2ff" stroke-width="0.8" opacity="0.6"/>
  <line x1="16" y1="23" x2="10" y2="19" stroke="#3a7bd5" stroke-width="0.8" opacity="0.6"/>
  <line x1="10" y1="19" x2="10" y2="13" stroke="#00d2ff" stroke-width="0.8" opacity="0.6"/>
  <line x1="10" y1="13" x2="16" y2="9" stroke="#3a7bd5" stroke-width="0.8" opacity="0.6"/>
</svg>
